<svg width="40" height="41" viewBox="0 0 40 41" fill="none" xmlns="http://www.w3.org/2000/svg">
<circle cx="20" cy="20.5" r="20" fill="url(#paint0_linear_47_7)"/>
<path d="M15.2926 27.5V25.5966L20.3423 20.6463C20.8253 20.1586 21.2277 19.7254 21.5497 19.3466C21.8717 18.9678 22.1132 18.6009 22.2741 18.2457C22.4351 17.8906 22.5156 17.5118 22.5156 17.1094C22.5156 16.6501 22.4115 16.2571 22.2031 15.9304C21.9948 15.599 21.7083 15.3433 21.3438 15.1634C20.9792 14.9834 20.5649 14.8935 20.1009 14.8935C19.6226 14.8935 19.2036 14.9929 18.8438 15.1918C18.4839 15.3859 18.2045 15.6629 18.0057 16.0227C17.8116 16.3826 17.7145 16.8111 17.7145 17.3082H15.2074C15.2074 16.3849 15.4181 15.5824 15.8395 14.9006C16.2609 14.2187 16.8409 13.6908 17.5795 13.3168C18.3229 12.9427 19.1752 12.7557 20.1364 12.7557C21.1117 12.7557 21.9688 12.938 22.7074 13.3026C23.446 13.6671 24.0189 14.1667 24.4261 14.8011C24.8381 15.4356 25.044 16.16 25.044 16.9744C25.044 17.5189 24.9399 18.054 24.7315 18.5795C24.5232 19.1051 24.1563 19.6875 23.6307 20.3267C23.1098 20.9659 22.3783 21.7401 21.4361 22.6491L18.929 25.1989V25.2983H25.2642V27.5H15.2926Z" fill="white"/>
<defs>
<linearGradient id="paint0_linear_47_7" x1="20" y1="0.5" x2="20" y2="40.5" gradientUnits="userSpaceOnUse">
<stop stop-color="#FF42D5"/>
<stop offset="1" stop-color="#2842CA"/>
</linearGradient>
</defs>
</svg>
