<svg width="40" height="41" viewBox="0 0 40 41" fill="none" xmlns="http://www.w3.org/2000/svg">
<circle cx="20" cy="20.5" r="20" fill="url(#paint0_linear_48_20)"/>
<path d="M19.5128 27.6989C18.4901 27.6989 17.581 27.5237 16.7855 27.1733C15.9948 26.8229 15.3698 26.3352 14.9105 25.7102C14.4512 25.0852 14.2074 24.3632 14.179 23.544H16.8494C16.8731 23.937 17.0033 24.2803 17.2401 24.5739C17.4768 24.8627 17.7917 25.0876 18.1847 25.2486C18.5777 25.4096 19.018 25.4901 19.5057 25.4901C20.0265 25.4901 20.4882 25.4001 20.8906 25.2202C21.2931 25.0355 21.608 24.7798 21.8352 24.4531C22.0625 24.1264 22.1738 23.75 22.169 23.3239C22.1738 22.8835 22.0601 22.4953 21.8281 22.1591C21.5961 21.8229 21.2599 21.5601 20.8196 21.3707C20.384 21.1813 19.8584 21.0866 19.2429 21.0866H17.9574V19.0554H19.2429C19.7495 19.0554 20.1922 18.9678 20.571 18.7926C20.9545 18.6174 21.2552 18.3712 21.473 18.054C21.6908 17.732 21.7973 17.3603 21.7926 16.9389C21.7973 16.527 21.705 16.1695 21.5156 15.8665C21.331 15.5587 21.0682 15.3196 20.7273 15.1491C20.3911 14.9787 19.9957 14.8935 19.5412 14.8935C19.0961 14.8935 18.6842 14.974 18.3054 15.1349C17.9266 15.2959 17.6212 15.5256 17.3892 15.8239C17.1572 16.1174 17.0341 16.4678 17.0199 16.875H14.4844C14.5033 16.0606 14.7377 15.3456 15.1875 14.7301C15.642 14.1098 16.2481 13.6269 17.0057 13.2812C17.7633 12.9309 18.6132 12.7557 19.5554 12.7557C20.526 12.7557 21.3688 12.938 22.0838 13.3026C22.8035 13.6624 23.3598 14.1477 23.7528 14.7585C24.1458 15.3693 24.3423 16.044 24.3423 16.7827C24.3471 17.6018 24.1056 18.2884 23.6179 18.8423C23.1349 19.3963 22.5005 19.7585 21.7145 19.929V20.0426C22.7372 20.1847 23.5208 20.5634 24.0653 21.179C24.6146 21.7898 24.8868 22.5497 24.8821 23.4588C24.8821 24.2732 24.6501 25.0024 24.1861 25.6463C23.7268 26.2855 23.0923 26.7874 22.2827 27.152C21.4777 27.5166 20.5545 27.6989 19.5128 27.6989Z" fill="white"/>
<defs>
<linearGradient id="paint0_linear_48_20" x1="20" y1="0.5" x2="20" y2="40.5" gradientUnits="userSpaceOnUse">
<stop stop-color="#FF42D5"/>
<stop offset="1" stop-color="#2842CA"/>
</linearGradient>
</defs>
</svg>
