<svg width="62" height="62" viewBox="0 0 62 62" fill="none" xmlns="http://www.w3.org/2000/svg">
<g opacity="0.4">
<path d="M24.8516 41.3333L28.7266 45.2083L37.1224 37.4583" stroke="url(#paint0_linear_22_21)" stroke-width="1.5" stroke-linecap="round" stroke-linejoin="round"/>
<path d="M22.7591 5.16663L13.4075 14.5441M39.2408 5.16663L48.5925 14.5441" stroke="url(#paint1_linear_22_21)" stroke-width="1.5" stroke-miterlimit="10" stroke-linecap="round" stroke-linejoin="round"/>
</g>
<path d="M5.16675 20.2843C5.16675 15.5052 7.72425 15.1177 10.9017 15.1177H51.0984C54.2759 15.1177 56.8334 15.5052 56.8334 20.2843C56.8334 25.8385 54.2759 25.451 51.0984 25.451H10.9017C7.72425 25.451 5.16675 25.8385 5.16675 20.2843Z" stroke="url(#paint2_linear_22_21)" stroke-width="1.5"/>
<path d="M9.04175 25.8334L12.6842 48.1534C13.5109 53.165 15.5001 56.8334 22.8884 56.8334H38.4659C46.5001 56.8334 47.6884 53.32 48.6184 48.4634L52.9584 25.8334" stroke="url(#paint3_linear_22_21)" stroke-width="1.5" stroke-linecap="round"/>
<defs>
<linearGradient id="paint0_linear_22_21" x1="30.987" y1="37.4583" x2="30.987" y2="45.2083" gradientUnits="userSpaceOnUse">
<stop stop-color="#FF42D5"/>
<stop offset="1" stop-color="#2842CA"/>
</linearGradient>
<linearGradient id="paint1_linear_22_21" x1="31" y1="5.16663" x2="31" y2="14.5441" gradientUnits="userSpaceOnUse">
<stop stop-color="#FF42D5"/>
<stop offset="1" stop-color="#2842CA"/>
</linearGradient>
<linearGradient id="paint2_linear_22_21" x1="31.0001" y1="15.1177" x2="31.0001" y2="25.4568" gradientUnits="userSpaceOnUse">
<stop stop-color="#FF42D5"/>
<stop offset="1" stop-color="#2842CA"/>
</linearGradient>
<linearGradient id="paint3_linear_22_21" x1="31.0001" y1="25.8334" x2="31.0001" y2="56.8334" gradientUnits="userSpaceOnUse">
<stop stop-color="#FF42D5"/>
<stop offset="1" stop-color="#2842CA"/>
</linearGradient>
</defs>
</svg>
