<svg width="955" height="224" viewBox="0 0 955 224" fill="none" xmlns="http://www.w3.org/2000/svg">
<path d="M140.705 56.3636L80.9389 220H60.6974L0.931818 56.3636H21.4929L70.0724 194.964H71.5639L120.143 56.3636H140.705ZM178.018 220V56.3636H197.088V220H178.018ZM187.713 28.2386C183.806 28.2386 180.468 26.9247 177.699 24.2969C174.929 21.598 173.544 18.3665 173.544 14.6023C173.544 10.8381 174.929 7.64204 177.699 5.01421C180.468 2.31533 183.806 0.965894 187.713 0.965894C191.619 0.965894 194.957 2.31533 197.727 5.01421C200.497 7.64204 201.882 10.8381 201.882 14.6023C201.882 18.3665 200.497 21.598 197.727 24.2969C194.957 26.9247 191.619 28.2386 187.713 28.2386ZM357.182 92.2656L339.817 97.1662C338.112 92.2656 335.697 87.8267 332.572 83.8494C329.447 79.8722 325.364 76.7116 320.321 74.3679C315.349 72.0241 309.17 70.8523 301.784 70.8523C290.705 70.8523 281.614 73.4801 274.511 78.7358C267.409 83.9915 263.858 90.7741 263.858 99.0838C263.858 106.115 266.273 111.832 271.102 116.236C276.003 120.568 283.531 124.013 293.688 126.57L318.403 132.642C332.111 135.98 342.374 141.271 349.192 148.516C356.081 155.76 359.526 164.851 359.526 175.788C359.526 185.021 356.969 193.224 351.855 200.398C346.741 207.571 339.604 213.217 330.442 217.337C321.351 221.385 310.804 223.409 298.801 223.409C282.821 223.409 269.646 219.822 259.277 212.649C248.908 205.405 242.267 194.964 239.355 181.328L257.572 176.854C259.916 186.584 264.497 193.935 271.315 198.906C278.205 203.878 287.26 206.364 298.482 206.364C311.053 206.364 321.102 203.558 328.631 197.947C336.159 192.266 339.923 185.163 339.923 176.641C339.923 170.036 337.722 164.496 333.318 160.021C328.915 155.476 322.239 152.138 313.29 150.007L286.55 143.615C272.345 140.206 261.834 134.808 255.016 127.422C248.197 120.036 244.788 110.874 244.788 99.9361C244.788 90.9162 247.239 82.9972 252.139 76.179C257.04 69.2898 263.787 63.892 272.381 59.9858C280.974 56.0795 290.776 54.1264 301.784 54.1264C316.77 54.1264 328.737 57.5355 337.686 64.3537C346.706 71.1008 353.205 80.4048 357.182 92.2656ZM505.025 157.464V56.3636H523.988V220H505.025V192.834H503.533C499.698 201.214 493.625 208.21 485.316 213.821C477.006 219.361 466.85 222.131 454.847 222.131C444.407 222.131 435.138 219.858 427.042 215.312C418.945 210.696 412.588 203.949 407.972 195.071C403.355 186.193 401.047 175.291 401.047 162.365V56.3636H420.01V161.193C420.01 173.977 423.775 184.276 431.303 192.088C438.831 199.83 448.49 203.7 460.28 203.7C467.667 203.7 474.769 201.925 481.587 198.374C488.405 194.822 494.016 189.638 498.419 182.82C502.823 175.93 505.025 167.479 505.025 157.464Z" fill="white"/>
<path d="M598.695 220H556.507L633.318 1.81818H682.111L759.028 220H716.841L658.567 46.5625H656.862L598.695 220ZM600.08 134.453H715.136V166.2H600.08V134.453ZM787.766 220V1.81818H869.584C886.346 1.81818 900.408 4.73011 911.772 10.554C923.206 16.3778 931.836 24.5454 937.659 35.0568C943.554 45.4972 946.502 57.6776 946.502 71.598C946.502 85.5895 943.519 97.7344 937.553 108.033C931.658 118.26 922.958 126.179 911.452 131.79C899.946 137.33 885.813 140.099 869.051 140.099H810.777V107.287H863.725C873.526 107.287 881.551 105.937 887.801 103.239C894.051 100.469 898.668 96.456 901.651 91.2003C904.705 85.8736 906.232 79.3395 906.232 71.598C906.232 63.8565 904.705 57.2514 901.651 51.7827C898.597 46.2429 893.945 42.0526 887.695 39.2116C881.445 36.2997 873.384 34.8438 863.512 34.8438H827.29V220H787.766ZM900.479 121.136L954.492 220H910.387L857.333 121.136H900.479Z" fill="url(#paint0_linear_2_2)"/>
<defs>
<linearGradient id="paint0_linear_2_2" x1="566.5" y1="-4.49999" x2="976" y2="220" gradientUnits="userSpaceOnUse">
<stop stop-color="#FF42D5"/>
<stop offset="1" stop-color="#2842CA"/>
</linearGradient>
</defs>
</svg>
